<?xml version="1.0" encoding="utf-8"?>
<!-- Generator: Adobe Illustrator 25.2.1, SVG Export Plug-In . SVG Version: 6.00 Build 0)  -->
<svg version="1.1" id="Camada_1" xmlns="http://www.w3.org/2000/svg" xmlns:xlink="http://www.w3.org/1999/xlink" x="0px" y="0px"
	 viewBox="0 0 966.7 156" style="enable-background:new 0 0 966.7 156;" xml:space="preserve">
<style type="text/css">
	.st0{fill:#FF4070;}
	.st1{fill:#753192;}
</style>
<path class="st0" d="M198.2,74.9c-0.2-20.9,12.3-3.7,11.8-17.6c-0.1-3.1,0-6.2,0-9.3c0.2-17.1-1.9-13.8,14.6-15.3
	c13-1.2,14.9,4.2,14,15c-0.7,8.3-3,17.9,12.1,16.5c6.2-0.7,5.5,7,5.2,12.5c-0.2,4.2,1,10.3-6.5,9.1c-11.2-1.8-11.9,4.4-11.1,12.7
	c0.5,5-0.1,10.1,0.2,15.1c0.4,5.9,2,9.3,9.8,9.5c9.8,0.3,9.2,5.7,9.2,16.6c-0.2,6-2,5.6-5.1,6.8c-23.2,9.1-41.7-3.1-42.4-28
	c-0.2-7.7-0.2-15.5-0.1-23.2c0.1-5.3,0.5-9.6-7.4-9.8C198.1,85.5,198,78.4,198.2,74.9z"/>
<path class="st1" d="M456.4,104.5c0-10.4,0.5-20.9-0.2-31.3c-0.5-8,2.9-11.1,10-9.4c6.5,1.6,15.9-6,19.5,6c0.5,1.6,3.9-1.2,5.9-2.3
	c16.2-9.3,29.1-8.6,42.5,3.8c4.8,4.5,6.7,2.3,10.1-0.7c9.3-8.6,20.2-10.9,32.4-7.7c13.3,3.5,21,12.3,21.6,26.8
	c0.6,16.6,0.1,33.2,0.3,49.9c0.1,4.8-1.2,6.6-6.5,7c-22.3,1.7-22.2,1.9-22.3-20.3c0-8.9,0.2-17.8-0.3-26.7
	c-0.5-9.4-5.2-15.8-15.2-15.2c-9.8,0.6-12.4,7.7-12.3,16.4c0.2,12.8-0.2,25.5,0.1,38.3c0.1,5.8-1.9,7.4-8.6,7.5
	c-11.3,0.1-20.6-9.4-20.6-20.7c0-9.3,0.1-18.5-0.2-27.8c-0.3-8.8-5.4-13.6-14-13.8c-8.5-0.1-12.9,5.4-13.2,13.2
	c-0.5,13.1-0.7,26.3-0.2,39.4c0.3,7.8-2.5,9.7-9.9,9.6c-18.9-0.2-18.9,0.2-18.9-18.9C456.4,119.9,456.4,112.2,456.4,104.5z"/>
<path class="st1" d="M898,72.5c14.4-12.7,28.5-13.2,43.1-7c11,4.7,17.1,13.1,17.2,25.2c0.1,15.8-0.2,31.7,0.3,47.5
	c0.2,6.9-2.4,8.2-8.8,8.3c-19.9,0.2-19.9,0.5-19.9-19c0-8.9,0.1-17.8,0-26.7c0.8-22.4-29.6-22.7-31.6-0.8
	c-0.7,12.3-0.6,24.7-0.2,37.1c0.2,6.7-1.2,9.5-8.8,9.5c-19.9,0-19.9,0.4-19.9-19.1c0-36.3,0.3-72.7-0.2-109
	c-0.1-8.8,2.4-12.1,11.1-10.8c8.5,1.6,18.2-4.5,17.8,8.8C897.8,34.2,898,51.9,898,72.5z"/>
<path class="st1" d="M719.3,74.9c-0.2-20.9,12.3-3.7,11.8-17.6c-0.1-3.1,0-6.2,0-9.3c0.2-17.1-1.9-13.8,14.6-15.3
	c13-1.2,14.9,4.2,14,15c-0.7,8.3-3,17.9,12.1,16.5c6.2-0.7,5.5,7,5.2,12.5c-0.2,4.2,1,10.3-6.5,9.1c-11.2-1.8-11.9,4.4-11.1,12.7
	c0.5,5-0.1,10.1,0.2,15.1c0.4,5.9,2,9.3,9.8,9.5c9.8,0.3,9.2,5.7,9.2,16.6c-0.2,6-2,5.6-5.1,6.8c-23.2,9.1-41.7-3.1-42.4-28
	c-0.2-7.7-0.2-15.5-0.1-23.2c0.1-5.3,0.5-9.6-7.4-9.8C719.3,85.5,719.1,78.4,719.3,74.9z"/>
<path class="st0" d="M152.9,149c-6.3,0.3-12.4-0.8-18.3-2.8c-16.2-5.3-17.5-11.5-6-24.3c2.8-3.1,4.4-1.7,6.7-0.4
	c4.7,2.7,9.4,5.6,14.9,6.1c3.9,0.4,8.2,0.2,9.4-4.7c1.1-4.4-2.5-5.9-5.8-7.4c-5.9-2.8-12.3-5-17.7-8.6
	c-16.5-11.1-14.8-32.5,3.2-40.9c13.6-6.4,27.9-5.4,42-1.1c3.7,1.1,8.9,2.2,5.2,7.4c-3.2,4.5-1.4,14.3-11.6,12.1
	c-4.1-0.9-8.2-2.3-12.4-2.7c-3.7-0.4-8.5-1.1-9.4,4.2c-0.9,4.6,3.6,5.4,6.6,6.7c2.8,1.2,5.9,1.8,8.8,2.9
	c16.3,5.8,22.8,14.4,21.7,28.7C189.2,142.2,171.4,148.8,152.9,149z"/>
<path class="st1" d="M784.6,105.5c-0.1-32.6,37.8-54.9,67.7-39.8c3.2,1.6,3.5,7.5,3.5,7.5s-0.9,15.6-12.1,13
	c-6.6-1.5-13.1-2.2-19.2,1.6c-8.2,5.1-11.8,16.4-8,25.5c3.8,9.1,13.6,14.7,24,11.2c13.8-4.6,12.7,7.4,15.3,13.2
	c3.6,8-5.4,7.4-9.6,8.6C814.1,155.2,784.6,135.4,784.6,105.5z"/>
<path class="st0" d="M297.6,74.9c10.4-10.7,20.7-15.5,33.8-12.3c7.2,1.7,10.7,4.2,6,11.7c-1.6,2.6-3.1,5.4-4.1,8.3
	c-2,5.5-4.2,7.3-10.9,5.1c-14.7-4.8-24.5,2.6-24.9,17.9c-0.3,10.8-0.4,21.6,0.1,32.4c0.3,6.6-2,8.4-8.5,8.5
	c-20.1,0.3-20,0.6-20-19.1c0-17.8,0.5-35.5-0.2-53.3c-0.4-9,2.9-11.9,11.3-10.7c2.3,0.3,4.7,0.3,7,0
	C294.3,62.5,298.8,64.6,297.6,74.9z"/>
<path class="st0" d="M106,106.2c0-11.6,0-23.1,0-34.7c0-2.6,0.9-6.8-2.1-7.1c-8.6-0.9-18.8-4.3-25.3,1.8c-4.3,4-5.4,1.6-8.1,0.4
	c-20.3-9.6-40.4-5.4-53,11.3c-26.2,37,10.3,90.6,55.1,63.4c1.5-0.9,3.9-3.4,4.6-1.4c4.2,13.7,15,3.8,22.3,6.3
	c4.7,1.6,6.7-1.5,6.6-6.5C105.8,128.6,106,117.4,106,106.2z M77.9,106.4c-0.7,10.7-9.6,18.7-20.3,18c-26.4-2-23.3-39.7,2.5-38.5
	C71,86.7,78.6,95.5,77.9,106.4z"/>
<path class="st1" d="M706.7,105.7c0-11.2,0.1-22.4,0-33.6c0-2.9,1-7.4-2.8-7.9c-8-1-18.6-3.9-23.6,1c-5.4,5.3-7.2,2-10.6,0.4
	c-44.5-20.2-77.9,34.6-49.3,69.2c13.2,15.3,32.9,18.3,51.5,8c1.8-1,4.7-4.2,5.6-2.1c4.5,11.8,13.9,8.8,21,8.8
	c6.7,0,8.7-4.6,8.4-11.3C706.3,127.3,706.7,116.5,706.7,105.7z M660.1,124.5c-25.8,0.7-26.3-38.5-0.6-38.6
	C684.6,85.8,684.9,124,660.1,124.5z"/>
<path class="st0" d="M389.6,61.5c-26,2.5-44,17.4-45.8,38.1c-7.3,61.2,92.2,65.8,98.4,10.8C444.6,81.1,420.4,58.6,389.6,61.5z
	 M392.9,124.5c-11.2-0.1-18.8-7.7-18.9-19c-0.4-26.1,38.4-25.9,38,0C411.9,116.5,403.8,124.6,392.9,124.5z"/>
</svg>
