<?xml version="1.0" encoding="utf-8"?>
<!-- Generator: Adobe Illustrator 25.2.1, SVG Export Plug-In . SVG Version: 6.00 Build 0)  -->
<svg version="1.1" id="Camada_1" xmlns="http://www.w3.org/2000/svg" xmlns:xlink="http://www.w3.org/1999/xlink" x="0px" y="0px"
	 viewBox="0 0 24 24" style="enable-background:new 0 0 24 24;" xml:space="preserve">
<style type="text/css">
	.st0{fill:none;}
	.st1{fill:#FF6A6A;}
</style>
<path class="st0" d="M0,0h24v24H0V0z"/>
<g>
	<path class="st1" d="M17.6,19.1c-0.4,0-0.8-0.2-1.1-0.4L12,14.1l-4.5,4.5c-0.3,0.3-0.7,0.4-1.1,0.4c-0.4,0-0.8-0.2-1.1-0.4
		c-0.3-0.3-0.4-0.7-0.4-1.1c0-0.4,0.2-0.8,0.4-1.1L9.9,12L5.3,7.5C5.1,7.2,4.9,6.8,4.9,6.4c0-0.4,0.2-0.8,0.4-1.1
		C5.6,5.1,6,4.9,6.4,4.9c0.4,0,0.8,0.2,1.1,0.4L12,9.9l4.5-4.5c0.3-0.3,0.7-0.4,1.1-0.4c0.4,0,0.8,0.2,1.1,0.4
		c0.3,0.3,0.4,0.7,0.4,1.1c0,0.4-0.2,0.8-0.4,1.1L14.1,12l4.5,4.5c0.3,0.3,0.4,0.7,0.4,1.1s-0.2,0.8-0.4,1.1
		C18.4,18.9,18,19.1,17.6,19.1z"/>
	<path class="st1" d="M6.4,5.4c0.3,0,0.5,0.1,0.7,0.3l4.9,4.9l4.9-4.9c0.2-0.2,0.4-0.3,0.7-0.3c0.3,0,0.5,0.1,0.7,0.3
		c0.4,0.4,0.4,1,0,1.4L13.4,12l4.9,4.9c0.4,0.4,0.4,1,0,1.4c-0.2,0.2-0.5,0.3-0.7,0.3c-0.3,0-0.5-0.1-0.7-0.3L12,13.4l-4.9,4.9
		c-0.2,0.2-0.5,0.3-0.7,0.3c-0.3,0-0.5-0.1-0.7-0.3c-0.4-0.4-0.4-1,0-1.4l4.9-4.9L5.7,7.1c-0.4-0.4-0.4-1,0-1.4
		C5.9,5.5,6.1,5.4,6.4,5.4 M6.4,4.4C5.9,4.4,5.4,4.6,5,5C4.2,5.8,4.2,7,5,7.8L9.2,12L5,16.2c-0.8,0.8-0.8,2,0,2.8
		c0.4,0.4,0.9,0.6,1.4,0.6s1-0.2,1.4-0.6l4.2-4.2l4.2,4.2c0.4,0.4,0.9,0.6,1.4,0.6s1-0.2,1.4-0.6c0.8-0.8,0.8-2,0-2.8L14.8,12
		L19,7.8c0.4-0.4,0.6-0.9,0.6-1.4c0-0.5-0.2-1-0.6-1.4c-0.4-0.4-0.9-0.6-1.4-0.6s-1,0.2-1.4,0.6L12,9.2L7.8,5
		C7.4,4.6,6.9,4.4,6.4,4.4L6.4,4.4z"/>
</g>
</svg>
