<?xml version="1.0" encoding="utf-8"?>
<!-- Generator: Adobe Illustrator 25.2.1, SVG Export Plug-In . SVG Version: 6.00 Build 0)  -->
<svg version="1.1" id="Camada_1" xmlns="http://www.w3.org/2000/svg" xmlns:xlink="http://www.w3.org/1999/xlink" x="0px" y="0px"
	 viewBox="0 0 24 24" style="enable-background:new 0 0 24 24;" xml:space="preserve">
<style type="text/css">
	.st0{fill:none;}
	.st1{fill:#FFC66E;stroke:#FFC66E;stroke-width:2;stroke-miterlimit:10;}
</style>
<g>
	<path class="st0" d="M0,0h24v24H0V0z"/>
</g>
<path class="st1" d="M12,5V3.2c0-0.5-0.5-0.7-0.9-0.3L8.4,5.7c-0.2,0.2-0.2,0.5,0,0.7l2.8,2.8C11.5,9.5,12,9.2,12,8.8V7
	c3.3,0,6,2.7,6,6c0,2.7-1.8,5-4.3,5.8c-0.4,0.1-0.7,0.5-0.7,1l0,0c0,0.6,0.6,1.2,1.2,1c3.3-1,5.8-4,5.8-7.7C20,8.6,16.4,5,12,5z"/>
<path class="st1" d="M7.9,17.6c-1-0.9-1.7-2-1.9-3.3c-0.1-0.5-0.5-0.8-1-0.8l0,0c-0.6,0-1,0.6-0.9,1.2c0.3,1.6,1.2,3.2,2.6,4.4
	c2.7,2.4,6.6,2.6,9.6,0.7c0.6-0.3,0.6-1.2,0.1-1.6l0,0c-0.3-0.3-0.8-0.3-1.2-0.1C12.9,19.5,9.9,19.4,7.9,17.6z"/>
</svg>
