<?xml version="1.0" encoding="utf-8"?>
<!-- Generator: Adobe Illustrator 25.2.1, SVG Export Plug-In . SVG Version: 6.00 Build 0)  -->
<svg version="1.1" id="Camada_1" xmlns="http://www.w3.org/2000/svg" xmlns:xlink="http://www.w3.org/1999/xlink" x="0px" y="0px"
	 viewBox="0 0 24 24" style="enable-background:new 0 0 24 24;" xml:space="preserve">
<style type="text/css">
	.st0{fill:none;}
	.st5{fill:#FF4070;}
</style>
<path class="st0" d="M0,0h24v24H0V0z"/>
<path class="st5" d="M12.5,8c-2.6,0-5.1,1-6.9,2.6L3.7,8.7C3.1,8.1,2,8.5,2,9.4V15c0,0.6,0.5,1,1,1h5.6c0.9,0,1.3-1.1,0.7-1.7
	l-1.9-1.9c1.4-1.2,3.2-1.9,5.1-1.9c3.2,0,5.9,1.8,7.2,4.5c0.3,0.6,0.9,0.8,1.5,0.6c0.7-0.2,1.1-1,0.8-1.7C20.2,10.4,16.6,8,12.5,8z"
	/>
</svg>
